<svg width="2048" height="2048" viewBox="0 0 2048 2048" fill="none" xmlns="http://www.w3.org/2000/svg">
<path d="M1189.57 180.065C1193.69 180.877 1196.53 177.64 1199.66 176.382C1203.75 174.736 1206.8 175.058 1210.41 176.7C1213.32 178.022 1215.76 180.187 1218.41 181.793C1221.07 183.4 1220.37 188.63 1219.99 191.861C1219.76 193.877 1220.16 195.858 1219.83 197.723C1219.05 202.071 1214.86 203.807 1212.03 206.563C1211.32 207.251 1209.62 207.133 1209.19 207.864C1206.39 212.622 1201.4 214.041 1196.86 215.984C1194.8 216.871 1195.56 219.119 1193.72 220.03C1185.74 223.982 1178.9 229.79 1171.2 234.211C1166.62 236.847 1161.27 237.754 1156.63 240.545C1153.77 242.266 1152.63 244.355 1152.69 247.106C1152.82 253.27 1151.22 258.919 1149.08 264.627C1147.7 268.299 1149.75 272.463 1148.28 276.457C1147.19 279.433 1147.15 282.78 1146.74 285.962C1146.38 288.694 1148.09 289.417 1149.1 290.729C1150.36 292.381 1151.44 290.236 1152.65 289.963C1158.77 288.578 1164.28 285.81 1169.89 283.157C1174.38 281.036 1179.14 279.486 1183.82 277.797C1184.78 277.451 1185.98 277.366 1186.96 277.611C1187.96 277.864 1189.09 278.364 1189.75 277.581C1194.91 271.402 1204.18 271.342 1208.96 264.63C1213.81 265.144 1217.58 260.737 1223.33 262.646C1226.87 263.817 1230.51 264.635 1234.04 266.33C1237.49 267.982 1238.87 270.401 1240.13 273.72C1242.48 279.915 1240.79 286.111 1240.67 292.259C1240.62 295.055 1236.87 296.534 1235.02 298.513C1231.18 302.631 1227.91 307.427 1223.45 310.942C1220.09 313.59 1215.9 315.14 1214.44 319.881C1213.9 321.657 1211.27 320.609 1209.65 321.317C1206.6 322.65 1203.71 323.928 1201.87 326.962C1200.62 329.032 1198.1 329.471 1196.08 330.42C1185.74 335.283 1177.27 343.022 1167.5 348.742C1166.18 349.517 1165.77 350.644 1165.11 351.69C1163.89 353.61 1162.54 354.755 1160.2 355.719C1154.58 358.041 1150.65 362.843 1146.21 366.965C1140.17 372.564 1141.69 379.557 1140.43 386.266C1138.79 395.038 1142.16 403.887 1139.2 412.481C1139 413.059 1138.94 413.992 1139.26 414.399C1143.5 419.694 1138.88 425.096 1139.61 430.273C1140.06 433.536 1138.79 435.558 1137.54 437.963C1137.32 438.392 1137.01 439.241 1137.08 439.284C1142.07 442.127 1135.04 447.231 1139.08 450.326C1139.19 450.415 1137.56 452.183 1137.49 453.218C1137.16 458.082 1135.91 462.765 1135.03 467.52C1134.94 468.004 1134.79 468.709 1135.04 468.988C1138.34 472.739 1135.42 476.296 1134.64 479.855C1134.38 481.036 1134.82 481.964 1135.26 482.564C1136.95 484.844 1136.06 486.835 1135.63 489.301C1134.83 493.915 1133.32 498.358 1133.67 503.405C1133.88 506.482 1133.8 511.064 1131.82 513.9C1128.39 518.821 1131.25 523.925 1130.39 528.899C1129.65 533.172 1133.34 534.063 1137.4 530.12C1140.52 527.084 1143.65 524.856 1148.13 524.94C1148.69 524.95 1149.74 524.499 1149.75 524.217C1149.94 520.816 1153.55 521.869 1154.65 520.498C1157.79 516.592 1163.96 517.772 1166.36 512.708C1167.28 510.778 1170.99 511.246 1172.26 511.649C1177.59 513.334 1182.04 509.931 1186.97 509.957C1187.85 509.962 1188.69 509.119 1189.66 509.895C1194.8 514.006 1201.67 515.764 1205.89 520.865C1207.3 522.58 1208.31 525.093 1209.86 527.068C1210.22 527.533 1210.04 528.832 1209.64 529.419C1207.44 532.604 1207.39 532.568 1210.61 536.817C1211.28 536.829 1211.64 536.739 1211.83 537.176C1210.3 542.239 1207.39 545.614 1203.34 547.839C1200.25 549.54 1200.51 553.333 1197.02 555.391C1188.92 560.164 1179.98 564.176 1173.53 571.131C1170.59 574.296 1167.76 576.813 1163.98 578.695C1162.16 579.601 1160.57 581.383 1160.95 583.978C1161.03 584.543 1160.64 585.693 1160.41 585.708C1153.21 586.175 1153.06 596.095 1145.77 596.537C1143.45 596.677 1145.98 598.773 1144.72 600.284C1141.48 604.141 1136.89 606.114 1132.86 607.118C1128.4 608.227 1128.53 612.772 1125.07 614.012C1124.44 614.241 1124.21 615.484 1122.96 615.575C1121.76 615.662 1121.2 617.591 1121.97 617.712C1128.74 618.775 1122.51 621.455 1122.15 621.749C1120.38 623.202 1120.54 624.839 1121.71 626.027C1124.35 628.695 1122.91 631.773 1122.32 634.272C1121.55 637.593 1120.53 640.588 1121.84 644.011C1122.19 644.941 1121.54 646.5 1120.92 647.509C1119.32 650.118 1116.64 652.413 1119.44 655.81C1119.6 655.993 1119.23 656.788 1118.93 657.134C1114.76 661.813 1116 666.913 1118.46 671.56C1119.57 673.655 1117.69 673.752 1117.48 674.847C1117.23 676.2 1115.42 678.466 1115.46 678.496C1119.93 681.364 1116.34 684.588 1115.91 687.587C1115.36 691.489 1114.29 695.357 1114.15 699.265C1113.98 703.826 1112.4 708.648 1113.24 712.695C1113.87 715.721 1112.4 716.308 1111.63 718.009C1110.98 719.467 1111.21 721.366 1112.23 722.466C1113.89 724.27 1114.41 725.686 1112.27 727.345C1115.14 729.863 1111.06 732.891 1111.91 733.841C1113.57 735.702 1112.08 736.32 1111.55 737.199C1107.67 743.671 1108.68 751.292 1106.53 758.163C1106.42 758.533 1106.58 759.164 1106.85 759.452C1109.57 762.369 1108.49 764.089 1105.22 765.463C1104.28 765.858 1103.08 767.409 1105.14 767.834C1107.26 768.271 1106.38 769.409 1106 770.172C1104.52 773.117 1106.49 775.827 1106.5 778.674C1106.52 780.547 1108.17 782.092 1110.29 780.151C1114.2 776.576 1118.52 773.287 1121.69 769.133C1123.56 766.687 1126.85 766.381 1128.09 763.507C1129.58 760.039 1131.81 757.45 1135.79 756.516C1138.15 755.964 1135.83 753.197 1137.26 752.065C1143.74 746.922 1147.13 738.924 1154.78 734.499C1157.98 732.653 1161.47 729.438 1164.64 726.781C1166.81 724.964 1170.46 723.304 1172.94 721.625C1177.6 718.477 1180.86 721.324 1184.7 721.85C1186.55 722.102 1185.68 719.229 1187.58 719.632C1188.82 722.566 1188.75 721.913 1191.44 721.62C1193.12 721.436 1195.54 723.229 1196.69 724.816C1197.34 725.709 1201.11 727.179 1197.43 729.598C1195.55 730.829 1197.65 735.497 1199.86 734.891C1201.61 734.414 1200.72 735.77 1201.26 735.783C1199.67 741.822 1201.36 748.955 1194.7 753.294C1192 755.055 1192.47 759.041 1190.9 761.867C1189.84 763.783 1185.09 766.931 1189.59 770.342C1189.22 770.82 1188.88 771.677 1188.46 771.716C1184.53 772.089 1184.39 775.252 1183.37 778.013C1182.49 780.398 1181.87 782.718 1179.43 784.74C1175.59 787.922 1174.21 793.265 1171.69 797.635C1170.86 799.066 1170.31 800.752 1168.86 801.603C1161.12 806.118 1158.11 814.717 1152.2 820.836C1150.23 822.878 1148.49 824.899 1145.88 826.055C1143.52 827.101 1143.02 829.262 1143.54 831.331C1144.15 833.761 1146.26 832.959 1148.14 832.834C1152.71 832.532 1157.07 833.284 1161.54 834.735C1165.07 835.88 1169.03 836.579 1172.76 836.813C1180.63 837.308 1186.48 841.03 1191.8 846.326C1193.12 847.647 1192.96 849.29 1193.54 850.762C1194.29 852.642 1191.28 856.985 1196.8 855.741C1196.83 856.604 1198.14 857.079 1197.18 858.34C1194.82 861.451 1193.03 864.875 1193.35 868.982C1193.39 869.564 1193.16 869.678 1192.75 869.993C1185.94 875.218 1179.96 881.579 1171.04 883.755C1169.38 884.159 1165.58 885.609 1165.97 889.317C1165.98 889.457 1165.98 889.6 1165.98 889.741C1161.04 887.654 1160.95 893.967 1157.49 894.635C1153.82 895.343 1151.16 898.31 1147.03 898.706C1141.35 899.253 1136.24 902.498 1131.48 905.462C1129.43 906.737 1127.17 906.27 1125.19 907.858C1123.37 909.319 1120.49 909.241 1120.57 912.687C1120.59 913.449 1119.35 913.708 1118.19 913.765C1114.24 913.959 1110.3 914.459 1106.38 915.069C1104.12 915.423 1101.64 915.338 1100.87 918.674C1100.23 921.443 1099.57 923.649 1102.65 925.3C1103.7 925.862 1103.87 926.569 1102.24 927.128C1100.89 927.589 1101.27 929.834 1101.84 930.074C1106.18 931.934 1103.15 934.253 1102.2 936.124C1099.82 940.826 1101.06 945.005 1103.71 948.979C1104.06 949.496 1104.7 949.748 1104.19 950.345C1101.06 953.991 1103.01 958.979 1100.74 962.934C1098.95 966.061 1101.56 969.258 1102.86 971.307C1105 974.658 1102.83 976.36 1101.79 978.392C1100.66 980.603 1100.17 981.545 1102.16 982.483C1104.06 983.377 1103.83 984.407 1103.49 985.901C1103.17 987.322 1105 987.95 1105.11 988.421C1105.64 990.644 1103.1 989.666 1102.09 990.575C1099.7 992.732 1098.2 1000.73 1099.84 1003.83C1103.4 1010.56 1103.32 1015.13 1099.54 1021.5C1099.39 1021.77 1099.22 1022.34 1099.27 1022.36C1102.79 1024.19 1099.65 1028.26 1100.26 1028.72C1104.49 1031.81 1099.38 1036.7 1102.79 1039.59C1099.53 1040.67 1101.06 1043.49 1100.93 1045.46C1100.75 1048.16 1099.58 1050.24 1098.52 1052.58C1097.09 1055.73 1102.09 1057.88 1100.67 1061.49C1100.52 1061.88 1101.8 1062.71 1100.81 1063.79C1098.09 1066.77 1098.68 1070.44 1099.09 1073.97C1099.35 1076.26 1099.89 1078.37 1097.58 1080.14C1096.49 1080.96 1097.03 1082.53 1097.37 1083.86C1097.92 1086.04 1098.22 1088.29 1098.21 1090.61C1100.86 1092.16 1101.37 1096.51 1098.04 1099.14C1095.31 1101.3 1094.48 1101.87 1097.53 1104.63C1098.39 1105.41 1099.44 1106.92 1101.34 1107.51C1099.68 1109 1094.97 1108.56 1098.81 1112.06C1096.41 1112.97 1096 1115.21 1097.01 1116.82C1098.03 1118.47 1099.06 1120.62 1101.37 1121.24C1101.46 1121.26 1101.17 1122.16 1101.34 1122.52C1101.92 1123.75 1100.8 1125.01 1101.13 1125.93C1103.63 1132.83 1095.74 1137.45 1097.2 1143.83C1098.23 1148.36 1095.34 1153.88 1096.67 1156.36C1100.22 1162.96 1094.51 1169.57 1098.28 1175.39C1099.43 1177.18 1098.12 1177.75 1097.85 1178.98C1096.96 1183.06 1093.88 1187.35 1099.38 1191.28C1102.12 1193.23 1099.24 1196.88 1097.5 1198.65C1095.05 1201.14 1094.53 1208.79 1097.48 1211.99C1100.48 1215.24 1100.91 1221.18 1098.09 1224.98C1097.16 1226.24 1097.18 1228.23 1097.33 1228.78C1098.62 1233.57 1098.39 1238.49 1099.06 1243.3C1099.46 1246.17 1100.81 1249.21 1098.96 1251.92C1096.84 1255.04 1097.81 1257.34 1100.62 1258.92C1102.31 1259.87 1102.32 1260.17 1100.69 1260.87C1096.35 1262.75 1095.78 1266.13 1099.59 1268.8C1100.96 1269.76 1102.25 1270 1100.73 1271.94C1099.71 1273.24 1101.67 1273.16 1102.13 1273.8C1103.2 1275.32 1103.01 1273.31 1103.45 1273.02C1109.94 1268.79 1115 1262.23 1123.25 1260.9C1124.6 1260.68 1125.63 1255.68 1127.48 1260.51C1127.49 1260.54 1128.66 1260.21 1129.23 1259.93C1134.03 1257.61 1137.11 1259.18 1141.57 1262.65C1147.1 1266.96 1148.73 1272.06 1147.97 1278.44C1147.25 1284.48 1145.53 1290.14 1141.57 1295C1139.85 1297.11 1138.82 1301.26 1137.34 1301.76C1131.37 1303.79 1132.93 1310.01 1130.34 1313.75C1127.08 1318.45 1123.65 1323.42 1120.81 1328.51C1119.79 1330.34 1118.13 1333.44 1118.86 1336.76C1119.18 1338.22 1116.74 1340.88 1115.37 1342.31C1114.07 1343.67 1113.69 1346.4 1111.05 1346.61C1110.31 1346.67 1109.96 1347.81 1110.03 1348.69C1110.4 1353.68 1109.06 1357.92 1105.01 1361.2C1103.56 1362.38 1103.64 1364.36 1104.63 1365.7C1107.24 1369.28 1106.44 1372.45 1104.2 1375.77C1103.64 1376.59 1103.99 1377.87 1104.98 1378.4C1109.27 1380.7 1106.29 1382.85 1104.9 1385.03C1103.22 1387.68 1099.78 1390.59 1105.98 1392.04C1106.25 1392.1 1106.73 1392.48 1106.7 1392.57C1104.73 1398.02 1110.77 1403.48 1106.58 1409C1104.92 1411.18 1105.05 1413.58 1107.19 1415.7C1107.7 1416.19 1109.16 1416.73 1108.06 1417.91C1104.06 1422.18 1108.64 1422.3 1110.78 1423.61C1108.68 1427.09 1107.1 1430.68 1108.35 1434.89C1109.58 1438.99 1108.35 1442.38 1105.29 1445.2C1103.14 1447.18 1103.16 1449.04 1105.87 1450.27C1108.29 1451.36 1108.45 1452.3 1106.98 1454.57C1105.03 1457.56 1104.81 1462.39 1102.69 1464.21C1098.84 1467.51 1100.93 1470.83 1100.66 1474.07C1100.47 1476.37 1100.65 1479.51 1106.35 1476.64C1101.78 1480.57 1100.11 1483.19 1102.87 1487.29C1103.83 1488.73 1103.17 1491.58 1102.62 1493.62C1101.99 1495.97 1100.97 1498.93 1103.65 1499.6C1106.91 1500.43 1109.55 1497.34 1109.56 1494.52C1109.56 1490.93 1110.96 1490.31 1113.86 1489.39C1117.27 1488.3 1117.45 1484.04 1119.36 1481.39C1123.58 1475.55 1129.24 1470.1 1129.27 1461.94C1129.27 1460.96 1130.67 1459.94 1131.51 1459.01C1136.67 1453.33 1137.21 1445.02 1142.7 1439.44C1143.98 1438.14 1144.92 1436.42 1146.31 1435.02C1148.72 1432.59 1151.97 1430.42 1151.06 1426.09C1150.85 1425.09 1151.2 1423.98 1152.58 1424.06C1156.9 1424.32 1158.39 1421.46 1159.01 1417.99C1159.47 1415.45 1162.13 1415.05 1163.14 1412.45C1165.4 1406.65 1160.86 1404.95 1158.26 1403.47C1154.06 1401.09 1151.17 1397.57 1151.68 1393.7C1152.16 1390.06 1150.52 1387.46 1149.73 1384.66C1148.46 1380.13 1149.65 1375.74 1149.01 1371.35C1148.66 1368.98 1150.22 1365.37 1145.49 1365.67C1145.36 1365.67 1145.2 1365.13 1145.06 1364.84L1145.59 1354.73C1146.53 1353.51 1145.09 1352.66 1145.1 1351.5C1145.13 1344.97 1145.52 1338.37 1144.67 1331.94C1144.29 1329.11 1144.31 1327.46 1146.77 1326.46C1152.02 1324.35 1155.47 1319.71 1160.25 1317.06C1163.64 1315.18 1167.65 1315.36 1170.81 1317.78C1173.29 1319.68 1175.68 1321.18 1178.72 1322.25C1182.17 1323.46 1183.37 1327.42 1184.96 1330.58C1188.16 1336.96 1189.1 1343.73 1188.05 1350.8C1187.94 1351.53 1187.79 1352.65 1188.95 1352.74C1189.48 1352.78 1190.15 1352.29 1190.6 1351.86C1192.25 1350.3 1192.81 1348.12 1192.91 1346.06C1193.17 1340.88 1196.71 1337.82 1200.24 1335.18C1202.73 1333.31 1203.6 1331.89 1201.86 1328.97C1205.55 1331.24 1206.82 1329.82 1206.62 1326.21C1206.6 1325.89 1206.35 1325.31 1206.4 1325.29C1212.5 1322.6 1210.8 1314.17 1216.71 1311.22C1217.3 1310.92 1218.5 1309.59 1218.52 1308C1218.55 1305.75 1222.42 1298.1 1223.4 1295.64C1223.97 1294.19 1224.22 1292.2 1223 1290.36C1220.86 1287.17 1222.6 1285.02 1225.69 1284.08C1230.51 1282.61 1232.1 1277.7 1230.18 1273.43C1227.58 1267.65 1224.28 1262.03 1223.85 1255.34C1223.6 1251.41 1220.86 1248.11 1219.45 1244.43C1216.38 1236.43 1214.66 1228.1 1212.1 1220C1209.41 1211.47 1209.45 1202.75 1210.1 1193.91C1210.74 1185.17 1215.65 1180.59 1223.47 1177.94C1228.81 1176.14 1233.58 1177.55 1238.72 1183.22C1239.96 1184.59 1240.71 1186.83 1243.31 1185.84C1245.79 1184.89 1245.25 1182.59 1245.89 1180.68C1248.24 1173.62 1246.77 1165.14 1253.51 1159.69C1253.64 1159.59 1253.82 1159.42 1253.81 1159.3C1253.13 1150.32 1262 1152.14 1266.01 1148.48C1266.85 1147.71 1268.54 1148.51 1268.88 1146.97C1269.18 1145.63 1269.5 1143.95 1271.11 1144.3C1272.62 1144.62 1271.93 1146.12 1271.5 1147.19C1273.81 1146.03 1274.04 1152.89 1277.16 1148.65C1277.61 1148.05 1278.48 1147.85 1278.82 1148.49C1280.7 1152.06 1284.82 1150.45 1287.3 1152.24C1290.1 1154.26 1293.94 1155.33 1294.22 1160.05C1294.39 1162.87 1296.76 1164.94 1299.9 1165.89C1300.09 1161.61 1304.11 1158.01 1303.01 1153.04C1302.36 1150.07 1306.37 1151.74 1306.62 1149.26C1307.11 1144.41 1312.35 1141.85 1312.13 1135.87C1311.98 1131.6 1317.95 1127.22 1318.08 1122.81C1318.21 1118.33 1323.36 1114.87 1320.18 1110.18C1322.1 1108.97 1321.15 1106.55 1323.02 1104.63C1325.86 1101.71 1329.05 1097.97 1330.16 1093.74C1331.79 1087.56 1334.48 1081.68 1335.66 1075.45C1336.92 1068.78 1340.45 1062.97 1341.79 1056.4C1342.09 1054.93 1342.39 1053.51 1340.41 1052.74C1334.95 1050.63 1331.43 1045.61 1325.94 1043.26C1322.89 1041.95 1322.31 1037.5 1319.79 1034.73C1314.83 1029.29 1308.73 1024.65 1305.66 1017.5C1303.56 1012.61 1300.3 1008.21 1298.19 1003.33C1296.48 999.359 1294.08 995.747 1291.15 993.036C1285.69 987.988 1282.36 982.485 1282.96 974.942C1283.05 973.767 1282.57 973.162 1281.46 972.74C1280.73 972.459 1279.81 971.667 1280.17 970.851C1282.55 965.405 1281.55 959.024 1285.02 953.857C1286.05 952.315 1286.85 951.362 1288.9 950.768C1292.44 949.742 1296.1 949.002 1299.55 947.392C1301.89 946.301 1304.86 946.324 1307.06 948.975C1310.24 952.804 1315.92 954.235 1318.34 958.228C1320.55 961.894 1324.67 963.94 1325.92 967.949C1327.67 973.577 1333.47 976.26 1335.31 981.703C1341.86 981.593 1339.56 990.286 1344.95 991.439C1345.4 991.534 1345.36 993.136 1345.92 993.561C1347.61 994.854 1344.27 998.416 1347.99 998.401C1350.83 998.39 1350.74 995.164 1352.12 993.509C1352.92 992.546 1353.9 990.917 1351.04 991.741C1350.82 991.804 1347.24 990.633 1350.75 988.806C1353.23 987.518 1353.42 983.036 1352.72 981.971C1349.86 977.645 1354.85 975.278 1354.43 971.914C1353.89 967.694 1356.82 964.305 1357.22 960.803C1357.96 954.403 1361.41 949.014 1362.13 942.472C1362.78 936.546 1366.85 930.445 1369.22 924.35C1372.39 916.209 1375.78 908.098 1378.05 899.699C1378.62 897.588 1378.07 893.901 1373.63 891.567C1366.79 887.975 1359.61 884.62 1353.71 878.661C1348.81 873.72 1348.14 867.186 1344.01 862.213C1342.57 860.476 1342.02 857.847 1339.53 856.734C1339.33 856.642 1339.12 856.115 1339.2 855.882C1342.01 847.265 1334.66 841.013 1333.93 833.146C1333.18 824.896 1331.92 816.762 1332.06 808.373C1332.15 803.195 1337.33 800.386 1336.43 795.271C1336.35 794.783 1337.38 793.826 1338.08 793.521C1341.24 792.15 1343.62 790.133 1345.18 786.952C1346.28 784.708 1348.36 786.523 1349.96 786.492C1355.09 786.394 1359.97 784.914 1365.43 786.638C1369.48 787.917 1372.45 790.357 1374.82 792.828C1377.48 795.59 1380.8 798.768 1381.01 803.564C1382.81 800.34 1385.14 797.736 1387.03 794.752C1390.4 789.4 1395.29 784.984 1399.71 780.328C1400.51 779.484 1402.34 780.374 1403.22 780.549C1407.33 781.364 1411.72 777.676 1415.4 781.041C1418.49 783.879 1423.33 784.077 1425.36 788.692C1427.32 793.126 1428.48 797.395 1427.04 802.048C1425.23 807.928 1424.18 814.451 1424.62 820.007C1425.17 827.07 1422.1 834.38 1425.61 841.22C1425.75 841.495 1425.9 841.925 1425.78 842.149C1425.17 843.329 1422.35 844.299 1424.97 845.774C1426.72 846.759 1429.51 846.198 1430.43 844.574C1432.63 840.691 1435.87 841.642 1438.94 842.109C1442.11 842.592 1444.99 842.718 1447.39 840.162C1447.82 839.711 1448.7 839.062 1449 839.218C1454.29 842.018 1460.16 838.333 1465.44 840.754C1467.55 841.723 1469.52 840.568 1471.15 839.883C1476.69 837.545 1482.06 842.305 1487.7 839.827C1489.13 839.199 1490.17 843.289 1493.54 843.297C1497.2 843.305 1499.22 848.921 1503.92 847.89C1503.8 850.344 1506.05 851.97 1505.77 854.774C1505.38 858.744 1506.91 862.667 1506.78 866.873C1506.59 872.88 1503.29 878.332 1497.59 879.052C1494.77 879.407 1494.5 881.102 1496.74 884.214C1488.18 887.51 1479.06 889.307 1470.86 893.591C1469.57 894.263 1468.34 893.678 1467.17 893.73C1464 893.871 1461 893.502 1458.4 896.071C1457.59 896.862 1455.67 896.817 1454.31 896.682C1450.91 896.345 1450.95 896.26 1448.75 899.365C1448.04 900.363 1446.86 900.187 1446.13 899.531C1442.55 896.325 1438.74 897.581 1434.75 898.511C1429.95 899.63 1425.27 901.452 1420.16 901.169C1418.93 901.101 1416.86 901.765 1416.92 903.572C1417.09 908.562 1415.14 913.125 1414.24 917.88C1413.11 923.846 1414.24 930.46 1409.88 935.604C1408.87 936.796 1408.75 938.149 1409.06 939.339C1410.55 944.963 1409.09 950.514 1406.96 955.262C1402.24 965.777 1403.1 976.857 1401.99 987.756C1401.92 988.41 1401.96 989.159 1401.66 989.688C1400.97 990.865 1398.96 991.933 1401 993.29C1402.03 993.975 1403.85 996.54 1404.97 993.114C1410.26 995.545 1412.78 988.202 1417.74 989.495C1418.56 983.791 1423.8 989.456 1426.15 986.125C1428.23 983.188 1432.69 984.261 1435.92 982.99C1439.52 981.574 1443.7 982.295 1447.05 980.852C1455.73 977.117 1463.86 980.944 1471.98 982.303C1475.74 982.933 1480.51 985.534 1481.5 990.885C1481.69 991.928 1482.53 992.962 1483.31 993.767C1486.07 996.616 1485.37 999.92 1484.33 1003.02C1483.14 1006.56 1480.01 1009.53 1481.27 1013.74C1481.56 1014.7 1481.17 1014.81 1480.46 1014.93C1474.09 1015.94 1470.8 1021.62 1465.86 1024.81C1463.76 1026.16 1461.47 1026.46 1459.39 1027.52C1456.69 1028.9 1453.94 1030.56 1451.38 1031.54C1448.28 1032.71 1444.93 1035.63 1441.78 1034.77C1435.43 1033.03 1432.08 1037.15 1428.38 1040.46C1427.43 1041.32 1426.47 1041.64 1425.71 1041.66C1423.21 1041.73 1422.57 1043.5 1422.57 1045.21C1422.58 1046.98 1424.26 1047.48 1425.9 1048.1C1428.53 1049.11 1431.38 1049.64 1433.98 1050.49C1439.07 1052.16 1439.34 1058.56 1444.5 1059.39C1443.3 1062.94 1446.66 1065.86 1446.24 1068.79C1445.85 1071.54 1444.56 1074.5 1442.34 1077.04C1433.94 1086.68 1422.89 1089.39 1410.92 1089.95C1408.08 1090.08 1405.37 1091.14 1403.25 1092.31C1400.1 1094.04 1397.06 1094.36 1394.5 1092.85C1390.59 1090.54 1387.39 1093.15 1385.58 1094.78C1383.57 1096.59 1381.59 1099.34 1381.02 1103.09C1380.11 1109.02 1377.85 1115.07 1374.79 1120.25C1372.54 1124.05 1373.35 1128.82 1370.06 1131.92C1366.19 1135.57 1365.52 1140.73 1364.05 1145.34C1360.67 1155.97 1355.59 1165.69 1350.48 1175.51C1349.37 1177.66 1349.09 1181.64 1347.97 1183.64C1345.19 1188.6 1345.72 1194.64 1341.96 1199.13C1340.2 1201.24 1339.62 1203.99 1341.48 1206.61C1337.84 1206.49 1337.71 1209.91 1336.14 1211.88C1335.44 1212.77 1338.24 1212.69 1336.57 1214.42C1335.44 1215.59 1332.11 1218.6 1334.34 1219.55C1336.94 1220.67 1340.76 1224.09 1343.99 1219.94C1344.62 1219.12 1345.38 1218.82 1346.09 1219.14C1353.19 1222.31 1360.23 1220.18 1367.4 1219.46C1370.81 1219.12 1374.51 1221.42 1377.69 1222.9C1381.64 1224.74 1384.86 1228.17 1389.16 1229.85C1391.76 1230.87 1390.75 1234.47 1392.93 1236.28C1394.33 1237.44 1395.08 1239.5 1396.37 1241.03C1397.59 1242.48 1398.64 1244.15 1396.54 1246.17C1395.33 1247.33 1394.58 1249.24 1395.08 1251.22C1396.52 1256.84 1393.22 1260.46 1389.02 1262.68C1387.22 1263.62 1386.27 1265.38 1386.28 1266C1386.31 1269.86 1383.12 1269.3 1381.21 1270.76C1376 1274.78 1369.01 1274.85 1364.14 1279.24C1363.7 1279.64 1362.87 1280.04 1362.38 1279.9C1357.69 1278.48 1355.53 1280.99 1354.36 1285.29C1354.25 1285.3 1354.02 1285.21 1353.75 1285.33C1353.47 1285.45 1353.55 1285.41 1354.23 1285.38C1356.66 1286.4 1358.62 1285.06 1360.59 1284.6C1363.47 1283.93 1365.76 1284.59 1368.36 1285.67C1369.77 1286.26 1371.07 1291.29 1373.37 1286.42C1373.77 1289.03 1377.72 1288.62 1377.76 1291C1377.82 1294.64 1378.88 1297.94 1379.81 1301.35C1380.47 1303.74 1379.52 1306.03 1378.35 1308.08C1373.9 1315.85 1368.34 1322.64 1360.72 1327.54C1359.51 1328.32 1358.14 1327.92 1356.82 1327.9C1353.87 1327.84 1350.35 1326.72 1349.89 1331.51C1349.86 1331.83 1349.25 1332.4 1349.1 1332.35C1345.43 1330.98 1342.23 1334.43 1339.16 1333.79C1335.12 1332.94 1331.83 1335.32 1327.88 1334.81C1324.25 1334.35 1320.96 1334.97 1317.34 1332.58C1314.67 1330.81 1310.71 1334.17 1307.02 1334.33C1305.15 1334.41 1302.8 1334.5 1300.84 1335.57C1299.73 1336.18 1297.6 1335.11 1297.88 1337.83C1297.99 1338.92 1297.47 1340.04 1295.74 1338.8C1294.78 1338.12 1293.95 1339.39 1294.05 1340.46C1294.66 1347.56 1290.02 1352.33 1286.14 1357.11C1281.83 1362.43 1277.9 1367.72 1275.6 1374.3C1274.98 1376.05 1271.78 1376.22 1274.7 1379.33C1276.56 1381.31 1272.43 1380.42 1271.39 1381.94C1269.58 1384.61 1268.09 1387.59 1265.95 1389.96C1262.17 1394.13 1257.75 1397.92 1256.18 1403.46C1255.03 1407.54 1249.74 1408.85 1250.03 1413.49C1250.3 1418.04 1247.49 1419.89 1243.99 1421.73C1242.66 1422.43 1242.12 1424.65 1241.22 1426.18C1242.5 1426.76 1243.73 1427.61 1245.08 1427.89C1254.61 1429.91 1263.94 1432.52 1272.53 1437.23C1277.44 1439.93 1281.79 1448.61 1280.07 1454.19C1278.26 1460.04 1271.08 1464.02 1264.36 1464.21C1258.39 1464.39 1252.61 1464.42 1246.73 1463.18C1244.31 1462.67 1241.48 1459.54 1239.78 1461.71C1238.48 1463.37 1240.78 1466.51 1241.81 1468.99C1244.66 1475.83 1245.11 1483.3 1245.82 1490.56C1246.32 1495.81 1244.27 1501.15 1239.92 1504.33C1235.53 1507.53 1229.47 1509.01 1224.81 1506.53C1220.43 1504.2 1214.6 1503.26 1212.07 1497.91C1210.96 1495.58 1211.18 1492.93 1209.35 1490.67C1206.57 1487.24 1204.82 1489.14 1204.14 1491.59C1201.42 1501.37 1194.91 1508.83 1189.2 1516.74C1187.81 1518.65 1188.08 1520.65 1187.18 1522.5C1186.45 1524.02 1189.28 1522.66 1189.35 1524.53C1185.29 1524.17 1185.17 1530.74 1180.38 1529.58C1183.05 1533.47 1176.02 1532.99 1177.25 1536.47C1177.49 1537.15 1175.29 1538.88 1174.91 1538.92C1169.54 1539.46 1167.58 1544.79 1163.39 1546.83C1160.15 1548.41 1159.68 1550.59 1161.86 1553.49C1158.3 1553.17 1150.69 1558.78 1149.87 1562.73C1149.24 1565.81 1147.38 1567.57 1145.03 1568.94C1140.32 1571.69 1136.09 1574.83 1134.38 1580.28C1134 1581.5 1131.61 1582.99 1134.44 1584.3C1134.65 1584.39 1134.76 1585.4 1134.6 1585.5C1129.13 1589.11 1130.38 1597.37 1124.15 1600.51C1122.4 1601.39 1124.71 1602.55 1124.49 1603.28C1123.95 1605.14 1122.48 1606.69 1120.82 1607.5C1117.05 1609.34 1116.96 1609.25 1119.2 1612.64C1119.54 1613.15 1119.72 1613.77 1120.34 1615.18C1115.23 1612.7 1112.73 1614.77 1110.98 1618.81C1110.02 1621.02 1108.68 1623.61 1106.07 1623.81C1102.64 1624.08 1102.78 1627.16 1102.69 1628.58C1102.54 1630.86 1103.15 1632.91 1100.57 1634.16C1098.89 1634.97 1100.37 1635.6 1100.55 1636.52C1101.25 1640.07 1102.23 1643.89 1099.37 1647.08C1098.45 1648.11 1098.3 1648.63 1099.38 1649.83C1100.98 1651.61 1104.55 1653.18 1101.19 1656.43C1104.64 1659.54 1100.57 1662.09 1100.64 1664.38C1100.87 1671.27 1101.27 1678.07 1100.08 1684.92C1099.74 1686.84 1099.31 1688.86 1100.47 1690.91C1101.88 1693.39 1101.72 1695.71 1100.34 1698.65C1098.14 1703.36 1103.44 1705.3 1105.72 1708.67C1102.89 1709.31 1101.85 1711.1 1102.07 1713.85C1102.44 1718.62 1101.78 1723.63 1101.23 1728.08C1100.84 1731.24 1103.49 1735.33 1100.14 1738.28C1099.69 1738.67 1099.68 1740.75 1100.81 1740.76C1104.16 1740.8 1101.78 1743.44 1102.86 1744.91C1104.93 1739.65 1108.52 1735.89 1111.68 1731.76C1114.05 1728.66 1115.6 1725.64 1119.72 1724.74C1120.79 1724.51 1119.27 1724.01 1119.2 1723.5C1118.89 1721.31 1119.4 1719.73 1121.78 1718.94C1127.17 1717.16 1130.57 1712.7 1134.41 1708.93C1135.22 1708.15 1136.52 1707.08 1136.84 1707.23C1143.1 1710.24 1149.65 1707.01 1155.79 1708.24C1159.54 1708.99 1163.83 1710.34 1166.12 1714.35C1166.77 1715.49 1167.66 1716.51 1169.03 1716.95C1170.87 1717.53 1173.57 1717.42 1170.53 1720.52C1169.11 1721.97 1171.59 1721.87 1172.43 1722.11C1174.73 1722.77 1174.68 1723.8 1174.96 1726.29C1175.75 1733.22 1172.13 1740.17 1175.3 1746.95C1175.4 1747.17 1175.41 1747.69 1175.33 1747.72C1168.51 1750.4 1170.77 1761.14 1162.26 1762.41C1160.75 1762.63 1161.74 1764.39 1161.54 1765.39C1161.35 1766.37 1162.44 1767.81 1161 1768.37C1158.89 1769.18 1158.08 1771.71 1158.75 1772.46C1160.19 1774.05 1162.44 1775.52 1164.91 1774.9C1168.36 1774.04 1171.42 1772.16 1174.47 1776.48C1175.82 1778.39 1180.54 1774.96 1182.48 1778.77C1188.01 1776.3 1188.7 1782.13 1190.83 1784.35C1195.3 1789.01 1196.56 1795.77 1196.05 1801.83C1195.77 1805.21 1191.51 1808.25 1189.03 1811.44C1186.9 1814.18 1184.96 1817.09 1182.17 1819.27C1181.15 1820.07 1179.36 1820.34 1180.7 1822.56C1181.58 1824.02 1179.36 1824.5 1178.63 1824.65C1173.4 1825.75 1168.22 1826.76 1165.05 1831.73C1158.53 1829.84 1156.97 1837.61 1151.56 1838.64C1147.99 1839.32 1143.77 1840.09 1140.81 1842.08C1136.66 1844.88 1131.74 1845.82 1127.74 1848.73C1125.01 1850.72 1120.85 1849.43 1118.47 1852.32C1117.68 1853.28 1114.54 1853.39 1116.77 1855.89C1116.83 1855.95 1116.2 1856.89 1116.03 1856.85C1110.42 1855.44 1108 1861.82 1103.04 1862.12C1101.48 1862.21 1100.38 1863.11 1100.72 1865.36C1100.92 1866.71 1100.53 1868.42 1098.34 1869.42C1094.54 1871.15 1094.59 1872.59 1097.57 1875.51C1096.22 1876.41 1094.75 1877.19 1094.13 1878.94C1095.56 1879.84 1097.86 1877.96 1098.39 1879.69C1098.68 1880.66 1097.83 1882.49 1096.26 1883.73C1093.94 1885.56 1095.02 1890.19 1096.79 1893.22C1097.42 1894.32 1096.74 1897.89 1094.18 1897.8C1091.23 1897.7 1091.89 1898.7 1091.8 1900.79C1091.49 1907.71 1092.62 1914.53 1093.22 1921.34C1093.79 1927.82 1090.82 1932.97 1089.14 1938.64C1088.77 1939.88 1087.45 1941.07 1088.06 1942.35C1090.58 1947.63 1086.4 1952.09 1086.48 1957.04C1086.52 1959.79 1083.43 1960.68 1083.13 1963.78C1082.88 1966.32 1080.28 1968.97 1079.66 1972.07C1078.67 1976.99 1074.06 1977.99 1070.43 1979.4C1068.37 1980.2 1068.27 1981.07 1068.8 1982.27C1070.4 1985.93 1067.73 1985.11 1065.87 1985.36C1061.17 1985.98 1056.33 1987.74 1052.35 1983.42C1047.92 1986.53 1043.57 1979.25 1039.09 1983.3C1038.89 1983.49 1037.86 1983.16 1037.86 1983.14C1038.51 1976.88 1031.45 1978.02 1029.21 1974.1C1026.56 1969.46 1024.58 1964.87 1023.97 1959.64C1023.89 1958.98 1024.13 1958.16 1023.81 1957.68C1020.68 1952.88 1020.96 1947.25 1019.66 1942.01C1018.84 1938.73 1019.36 1935.82 1020.42 1933.47C1023.64 1926.41 1021.78 1919.91 1020.98 1912.72C1020.15 1905.16 1015.76 1898.51 1016.55 1890.61C1016.77 1888.44 1017.31 1884.26 1013.54 1882.71C1013.34 1882.63 1013.31 1881.52 1013.38 1881.5C1019.12 1879.86 1015.47 1876.28 1014.91 1873.54C1014.35 1870.81 1013.19 1868.4 1015.51 1865.69C1017 1863.94 1014.51 1862.02 1014.25 1859.95C1013.39 1853.25 1011.38 1846.75 1004.38 1843.5C1003.85 1843.25 1003.16 1842.61 1003.14 1842.14C1002.98 1835.03 997.924 1831.28 993.025 1827.53C991.537 1826.39 991.581 1824.86 991.057 1823.46C990.735 1822.61 991.104 1820.92 989.843 1821.19C986.262 1821.97 985.706 1818.96 984.761 1817.1C980.932 1809.57 974.385 1803.64 971.338 1795.92C969.734 1791.86 965.105 1789.36 965.73 1784.39C960.133 1783 962.891 1775.94 958.492 1773.71C958.268 1773.6 958.027 1773.1 958.098 1772.88C960.297 1766.03 953.922 1761.66 953.033 1755.62C952.655 1753.05 953.991 1750.67 953.003 1748.27C949.7 1740.22 954.866 1735.77 959.623 1730.44C963.533 1726.06 967.692 1725.43 972.989 1724.73C981.474 1723.62 986.57 1728.67 991.489 1733.49C994.813 1736.74 998.745 1739.98 1000.38 1744.83C1000.83 1746.16 1003.08 1747.1 1003.44 1747.68C1005.26 1750.62 1009.5 1751.3 1009.9 1755.75C1010.19 1758.9 1013.27 1759.74 1016.37 1758.23C1017.25 1757.8 1018.67 1757.29 1017.53 1756.25C1014.1 1753.12 1017.55 1749.57 1016.7 1746.17C1015.98 1743.3 1016.47 1743.11 1013.4 1741.45C1011.94 1740.66 1010.79 1738.02 1012.2 1736.43C1018.96 1728.76 1015.38 1719.79 1015.71 1711.33C1015.95 1704.95 1012.52 1698.68 1015.3 1692.17C1016.35 1689.73 1016.74 1687.12 1015.32 1684.39C1014.24 1682.3 1016.81 1680.94 1017.41 1679.11C1017.58 1678.6 1019.87 1678.65 1019.36 1677.14C1018.96 1675.97 1017.85 1674.91 1016.28 1675.01C1014.01 1675.16 1013.79 1673.69 1013.47 1671.92C1013.13 1670.06 1013.25 1669.27 1015.42 1668.68C1017.72 1668.05 1015.09 1665.96 1016 1664C1018.02 1659.65 1014.05 1653.85 1009.39 1651.9C1005.98 1650.48 1003.77 1647.32 1000.43 1645.41C993.057 1641.18 987.959 1633.38 980.987 1629.11C976.462 1626.35 977.769 1621.4 973.564 1619.22C971.678 1618.24 971.257 1614.19 968.104 1612.88C966.346 1612.15 963.812 1600.73 964.402 1598.8C965.281 1595.92 968.561 1593.34 965.612 1589.94C967.808 1588.47 968.498 1585.86 970.094 1583.99C972.063 1581.69 974.506 1579.78 976.783 1577.75C977.449 1577.15 977.89 1576.45 979.218 1576.62C981.958 1576.97 985.32 1579.22 987.157 1574.74C987.323 1574.34 990.135 1574.43 991.249 1575.09C998.585 1579.43 1007.69 1581.53 1011.82 1590.03C1012.87 1592.17 1013.87 1590.78 1014.86 1590.96C1016.24 1591.2 1017.28 1590.52 1016.94 1589.03C1015.49 1582.58 1015.49 1576.06 1015.67 1569.51C1015.68 1568.94 1014.59 1568.71 1015.7 1567.61C1019.67 1563.66 1014.67 1565.38 1013.37 1564.45C1017.3 1558.84 1017.3 1552.26 1017.98 1545.84C1018.13 1544.48 1016.86 1543.84 1016.52 1542.82C1016.04 1541.4 1014.81 1540.08 1016.88 1538.32C1019.1 1536.43 1017.08 1526.28 1014.19 1525.91C1011 1525.49 1012.95 1524.03 1013.18 1523.61C1015.96 1518.53 1014.57 1512.36 1017.58 1507.22C1018.18 1506.19 1014.34 1504.3 1014.89 1501.2C1015.66 1496.9 1014.55 1492.46 1016.49 1488.11C1018.49 1483.59 1015.4 1478.78 1016.3 1474.04C1017.58 1467.28 1016.65 1460.93 1014.7 1454.2C1013.76 1450.95 1014.53 1446.01 1014.8 1441.86C1014.91 1440 1015.14 1438.61 1013.09 1437.93C1013.77 1436.67 1010.05 1434.48 1013.96 1433.9C1015.09 1433.73 1014.96 1432.72 1014.97 1431.93C1015.02 1426.9 1014.73 1421.84 1015.93 1416.87C1016.23 1415.62 1015.18 1415.31 1014.45 1414.64C1012.86 1413.17 1013.31 1410.64 1014.37 1409.87C1015.55 1409.03 1016.53 1408.37 1015.8 1407.27C1014.83 1405.82 1013.69 1407.67 1012.62 1407.71C1004.87 1407.98 997.607 1410.86 989.944 1411.85C985.306 1412.44 980.265 1413.45 975.878 1415.3C970.769 1417.46 965.041 1419.47 960.24 1419.47C956.403 1419.47 953.479 1423.54 949.542 1421.12C948.631 1420.56 946.759 1421.92 945.744 1422.08C943.267 1422.49 941.12 1426.69 938.079 1423.2C937.617 1422.67 935.905 1423.01 935.964 1423.71C936.38 1428.66 932.301 1425.24 930.741 1426.56C929.942 1427.23 923.514 1425.14 922.542 1424.05C920.718 1422 917.948 1423.95 915.626 1421.69C912.942 1419.08 910.592 1416.02 910.263 1413.02C909.112 1402.52 912.669 1397.9 923.36 1390.65C931.833 1384.91 941.47 1382.01 950.551 1377.76C953.359 1376.44 956.739 1377.95 959.191 1375.62C960.089 1374.76 962.474 1375.84 962.191 1373.83C961.896 1371.75 959.777 1370.52 957.974 1370.76C956.139 1371.01 955.033 1370.73 954.439 1369.18C952.919 1365.24 947.515 1364.46 946.885 1359.79C946.812 1359.26 946.091 1358.4 945.636 1358.38C937.893 1357.98 938.822 1349.51 934.28 1346.05C933.339 1345.34 933.285 1341.49 933.489 1340.9C934.95 1336.66 931.591 1336.96 929.557 1335.97C932.811 1331.25 937.134 1325.8 937.509 1321.2C938.074 1314.28 943.392 1313.28 946.338 1309.56C947.369 1308.26 949.531 1308.9 951.122 1309.07C954.051 1309.39 956.76 1309.65 959.035 1307.11C959.602 1306.47 961.14 1304.94 962.09 1307.31C963.266 1310.23 966.973 1309.08 967.449 1308.48C969.907 1305.43 971.448 1307.85 973.123 1308.99C978.626 1312.74 984.698 1315.5 990.484 1318.72C999.469 1323.71 1007.18 1329.99 1014.07 1337.46C1014.27 1337.68 1014.66 1337.71 1016 1338.24C1014.54 1332.12 1017.42 1326.07 1013 1320.74C1012.48 1320.11 1013.08 1318.41 1013.37 1317.26C1014.17 1314.02 1013.88 1312.76 1011.56 1310.99C1011.18 1310.7 1010.69 1310.63 1011.07 1310.08C1013.72 1306.27 1011 1302.23 1010.57 1298.76C1009.24 1288.19 1010.22 1278.02 1011.53 1267.61C1012.22 1262.09 1012.29 1255.24 1009.59 1250.9C1006.68 1246.23 1004.17 1241.45 1001.89 1236.52C999.032 1230.33 997.752 1223.56 997.752 1216.87C997.752 1212.71 994.988 1209.9 994.566 1205.99C994.186 1202.47 992.061 1199.23 993.647 1195.36C993.928 1194.67 994.82 1191.85 992.334 1191.55C990.847 1191.37 991.275 1191.7 991.204 1190.25C990.941 1184.84 991.686 1179.23 987.14 1174.65C986.352 1173.86 986.306 1169.89 987.086 1167.61C987.472 1166.48 987.509 1165.49 986.939 1165C980.958 1159.85 982.058 1151.26 977.612 1145.63C973.972 1141.03 971.356 1135.8 969.318 1130.72C967.006 1124.94 963.372 1120.09 960.702 1114.64C958.251 1109.64 955.886 1104.34 951.359 1100.57C947.49 1097.36 946.784 1092.35 945.263 1088.05C944.203 1085.06 942.787 1082.35 941.127 1079.89C939.143 1076.94 935.488 1077.34 932.619 1078.28C923.879 1081.14 914.978 1083.79 906.74 1087.77C902.83 1089.65 898.329 1089.77 894.986 1092.08C886.343 1098.08 874.833 1095.89 866.489 1102.58C865.431 1103.43 862.84 1103.32 861.458 1102.64C856.872 1100.39 851.455 1101.01 847.253 1098.99C844.387 1097.62 839.242 1094.32 840.448 1090.28C841.562 1086.55 841.46 1084.91 838.215 1083.36C840.219 1080.66 835.133 1076.71 839.961 1074.26C841.258 1073.61 842.751 1070.75 842.302 1069.68C840.126 1064.48 844.104 1062.8 846.992 1060.59C849.96 1058.32 852.261 1054.66 856.836 1055.31C857.26 1055.37 857.849 1055.43 858.125 1055.2C865.556 1049.06 866.902 1049.65 874.789 1046.61C879.919 1044.64 885.005 1045.04 889.946 1043.62C890.927 1043.34 891.846 1043.6 892.174 1041.98C892.462 1040.56 892.123 1040.09 891.075 1039.5C886.452 1036.91 882.131 1033.35 877.182 1031.87C869.334 1029.52 861.116 1028.23 852.968 1027.14C849.04 1026.61 844.961 1023.1 840.89 1026.88C839.265 1025.01 837.727 1023.63 834.732 1023.85C830.277 1024.19 826.061 1020.67 821.331 1022.58C821.169 1022.64 820.78 1022.24 820.545 1022.01C814.111 1015.71 806.864 1009.94 806.089 999.949C806.016 999.002 806.102 997.893 806.532 997.081C808.833 992.739 812.742 989.139 812.579 983.666C812.574 983.469 813.224 983.105 813.595 983.066C819.259 982.457 823.601 978.254 829.139 977.351C836.52 976.147 843.899 974.536 851.379 976.723C855.89 971.962 860.113 977.578 864.581 977.564C869.342 977.548 874.83 979.373 879.698 981.698C882.468 983.021 885.892 983.395 888.843 984.336C892.272 985.431 896.247 986.163 898.951 989.008C899.62 989.713 900.254 990.24 900.94 989.783C901.386 989.487 901.683 988.347 901.479 987.796C900.355 984.765 900.82 981.044 896.844 979.295C892.457 977.367 893.798 972.272 892.371 968.771C890.846 965.03 886.976 963.127 886.275 959.147C881.157 959.52 888.227 955.363 884.501 954.466C882.725 954.039 880.3 951.102 880.317 949.322C880.388 941.614 870.627 938.148 872.305 929.928C872.366 929.634 872.621 926.343 870.157 928.482C869.713 927.813 869.014 927.197 868.866 926.468C867.834 921.388 863.87 917.894 861.898 913.42C860.325 909.851 861.687 905.015 858.546 902.038C854.779 898.468 855.188 893.181 852.469 889.192C851.728 888.105 851.187 888.223 850.437 887.986C843.029 885.652 835.654 883.195 828.173 881.127C826.774 880.741 826.098 879.809 824.563 878.938C824.333 882.645 822.806 883.481 819.327 882.121C814.189 880.112 808.701 878.156 804.137 875.693C800.454 873.706 796.772 871.66 792.737 870.445C791.994 870.221 789.395 867.565 789.316 871.545C789.303 872.175 788.047 871.465 788.044 870.55C788.035 867.372 786.24 867.164 783.45 866.545C778.974 865.552 774.567 863.887 770.396 861.535C766.81 859.513 762.808 857.654 758.371 857.847C758.207 857.854 757.94 857.923 757.894 857.852C754.276 852.206 746.485 851.626 743.115 845.663C742.267 844.163 742.133 842.75 743.148 841.352C743.651 840.659 744.245 840.05 743.586 839.183C737.979 831.805 741.69 824.709 744.759 817.937C745.387 816.552 747.427 814.745 749.019 813.323C749.44 812.947 754.139 814.174 750.259 811.094C749.674 810.63 750.948 810.702 751.471 810.628C753.993 810.267 756.525 809.919 759.014 809.386C762.213 808.7 765.138 807.646 768.195 806.123C772.547 803.955 778.626 803.094 783.836 804.917C788.401 806.514 792.964 807.606 797.737 807.995C802.174 808.357 806.61 808.836 811.054 808.952C813.125 809.006 812.973 811.042 814.243 811.654C815.547 812.283 816.728 813.052 818.116 811.434C819.706 809.581 818.383 808.566 817.22 807.828C811.536 804.218 812.054 797.659 810.284 792.411C809.075 788.829 805.916 785.682 806.949 781.129C807.297 779.596 803.884 780.71 802.399 778.844C800.424 776.365 800.657 781.115 798.765 780.798C797.279 778.675 794.644 776.871 797.465 773.723C798.347 772.739 794.85 761.432 793.583 761.092C791.716 760.592 792.859 759.645 792.974 758.948C793.194 757.617 792.217 755.907 791.828 755.874C786.599 755.424 788.826 751.531 789.024 749.235C789.46 744.182 786.52 740.225 785.022 735.927C783.767 732.324 783.399 728.518 781.883 725.041C781.493 724.145 781.284 722.831 780.59 722.46C774.864 719.398 774.01 714.353 774.729 708.645C775.004 706.461 773.256 705.99 772.028 704.992C769.519 702.954 767.824 701.056 768.071 697.009C768.222 694.528 766.544 690.605 764.509 688.338C761.542 685.03 761.366 680.877 759.838 677.193C756.819 669.915 755.748 661.979 753.468 654.501C751.712 648.741 752.396 643.203 751.773 637.593C751.474 634.907 750.595 632.07 751.136 629.55C752.31 624.081 749.68 623.46 745.393 623.97C743.606 624.183 741.871 624.412 740.088 624.804C729.045 627.238 718.115 630.168 707.025 632.443C702.325 633.407 696.982 635.236 692.37 636.16C685.444 637.548 678.565 640.215 670.767 639.522C664.367 638.952 660.494 635.286 655.434 633.165C653.156 632.21 653.965 630.569 654.49 629.011C655.147 627.058 656.105 625.591 652.414 625.775C649.1 625.94 647.05 619.968 649.548 617.25C652.187 614.379 653.278 611.461 652.645 607.69C652.567 607.225 653.423 606.438 654.011 606.053C659.297 602.588 663.109 596.09 668.641 594.531C674.844 592.783 677.788 584.556 685.459 586.93C687.425 587.539 687.816 585.111 688.937 584.308C692.894 581.473 697.399 582.332 701.51 581.672C704.892 581.129 708.025 579.2 711.749 579.886C714.966 580.478 711.43 575.656 714.572 575.644C714.104 574.424 713.96 572.958 712.607 572.323C703.649 568.116 697.992 559.617 689.932 554.552C683.852 550.731 680.641 543.315 673 541.807C672.642 541.737 672.185 541.246 672.095 540.874C671.081 536.707 667.179 534.487 665.312 531.479C661.708 525.671 659.753 518.383 664.13 511.129C666.449 507.285 668.852 503.764 672.432 501.081C673.723 500.115 674.908 499.185 676.78 499.266C680.083 499.408 683.725 500.969 686.475 497.552C686.637 497.351 687.838 497.621 688.204 498.006C691.392 501.362 696.503 500.188 699.988 503.193C701.519 504.513 704.263 504.786 706.481 504.866C710.112 504.996 712.658 509.774 716.893 507.143C717.397 506.829 718.004 507.689 717.761 508.463C716.741 511.711 720.579 511.486 720.854 511.296C724.64 508.692 725.134 513.241 727.162 514.185C729.111 515.092 730.467 516.765 733.13 516.242C734.247 516.023 736.365 516.031 737.33 518.452C738.186 520.603 740.555 522.15 742.384 524.1C744.006 522.078 745.249 520.442 745.647 518.065C745.898 516.562 745.52 515.335 744.492 515.387C739.783 515.627 741.958 513.458 742.323 510.999C742.985 506.532 745.159 501.989 742.9 497.389C742.583 496.743 742.367 496.295 742.798 495.635C744.899 492.426 744.154 489.187 742.816 485.963C742.647 485.555 742.08 485.032 742.189 484.83C745.989 477.846 742.224 471.034 742.173 464.19C742.125 457.759 739.547 451.003 742.654 444.499C743.168 443.425 741.524 441.501 741.59 440.001C741.862 433.807 742.662 427.629 742.783 421.436C742.908 415.095 744.117 409.019 745.866 402.985C746.196 401.849 745.578 401.165 744.311 401.013C736.768 400.109 731.675 393.745 725.13 391.754C719.888 390.16 716.714 385.267 710.84 385.115C706.588 385.004 705.68 379.285 702.003 377.52C699.833 376.479 699.33 372.637 695.825 373.847C695.457 369.332 689.894 368.416 689.077 364.433C687.628 357.377 685.458 350.281 688.903 343.095C691.883 336.878 697.126 332.817 703.29 331.489C706.005 330.904 710.339 332.034 713.773 332.475C718.485 333.08 721.281 336.757 725.684 337.378C730.471 338.052 735.153 340.874 739.542 341.263C744.71 341.72 747.194 344.585 750.797 346.855C752.852 348.15 755.701 345.765 756.584 343.364C759.727 334.821 761.981 325.837 763.39 317.026C764.296 311.354 770.07 307.977 768.642 301.999C773.922 299.936 774.46 292.06 781.295 291.77C782.972 291.699 783.642 289.635 785.363 288.773C791.571 285.665 796.445 290.668 802.05 290.643C804.694 290.631 806.552 294.019 806.424 295.344C806.163 298.04 808.314 298.943 808.775 300.768C809.193 302.419 812.379 304.099 809.15 306.107C808.949 306.231 809.136 307.477 809.492 307.922C813.602 313.061 811.904 319.044 811.931 324.737C811.951 328.943 814.35 332.732 814.357 336.655C814.365 341.316 812.425 346.068 813.109 350.766C814.103 357.598 813.024 364.258 812.359 370.951C812.051 374.04 811.285 377.251 809.949 380.034C807.759 384.598 808.937 389.603 807.45 394.325C806.731 396.611 808.233 399.328 804.319 399.657C803.941 399.688 803.499 400.681 803.336 401.294C801.136 409.525 796.258 415.616 789.249 420.44C786.794 422.13 786.206 424.955 786.476 428.865C787.122 438.217 792.602 446.382 792.032 456.007C791.9 458.245 793.483 461.63 794.366 464.411C796.401 470.816 796.949 477.646 798.279 484.264C799.022 487.96 798.848 492.031 799.885 495.869C800.306 497.424 798.261 499.922 801.843 500.152C802.866 500.218 802.011 500.784 801.688 500.914C799.022 501.988 800.014 505.247 800.329 505.968C803.619 513.486 802.853 521.648 804.352 529.417C804.654 530.987 806.083 531.746 805.936 533.595C805.604 534.168 805.528 534.326 805.684 534.406C805.759 534.445 805.896 534.466 806.389 534.574C813.989 528.327 818.702 519.922 824.626 512.482C827.409 508.986 831.11 505.617 833.914 502.116C837.717 497.367 844.253 496.457 847.248 490.129C848.75 486.956 854.085 483.945 857.892 481.162C860.287 479.412 863.078 478.302 864.3 475.314C864.416 475.031 864.785 474.615 864.993 474.64C870.28 475.26 874.663 471.099 880.112 471.951C882.326 472.298 884.496 470.936 887.2 471.783C893.263 473.682 897.742 476.55 900.488 482.682C902.404 486.96 904.078 490.616 904.724 495.653C905.571 502.26 902.514 505.85 900.068 510.518C897.624 515.182 895.659 520.202 891.272 523.414C887.905 525.879 885.981 528.858 885.999 533.027C886.005 534.322 885.338 535.949 884.379 535.701C878.351 534.142 876.95 539.558 874.108 542.493C872.965 543.673 872.899 542.282 872.44 542.477C871.024 543.078 868.399 543.491 868.65 544.763C869.446 548.803 866.169 549.008 864.165 550.38C860.538 552.861 857.985 556.233 855.135 559.502C852.063 563.026 850.6 568.037 845.799 570.249C843.539 571.291 843.255 574.458 841.454 576.501C837.634 580.834 833.251 584.808 830.334 589.987C829.023 592.314 826.262 594.538 824.281 595.214C819.602 596.811 817.334 600.666 815.986 604.065C814.577 607.618 813.995 612.31 815.267 616.368C816.575 620.539 817.336 624.788 817.261 629.032C817.205 632.141 817.878 634.314 820.432 635.955C824.186 638.368 823.754 642.857 824.845 646.291C827.373 654.251 833.4 660.076 836.57 667.578C837.188 669.041 838.93 669.905 838.116 671.997C837.712 673.036 838.32 673.866 839.511 674.184C843.97 675.372 844.861 679.445 845.742 682.949C846.446 685.747 846.547 686.626 849.957 685.895C852.798 685.286 852.339 689.302 851.671 690.346C849.858 693.178 851.274 695.075 852.659 697.08C853.438 698.207 854.598 699.055 853.101 700.4C852.046 701.349 852.471 702.671 853.436 702.682C859.445 702.754 857.302 708.149 859.055 710.96C860.118 712.665 858.42 714.448 859.214 716.16C863.928 714.891 869.502 707.266 868.71 702.84C868.492 701.626 869.388 701.091 869.692 701.215C872.736 702.457 875.267 698.71 878.446 700.431C879.132 700.802 880.7 700.812 881.916 699.708C885.418 696.529 895.241 697.482 897.712 703.007C898.89 705.644 901.207 706.559 902.567 708.771C906.201 714.681 905.127 721.103 905.983 727.362C906.88 733.92 906.12 740.28 905.158 746.957C909.623 746.375 907.719 741.942 910.267 739.806C912.379 738.034 911.721 732.171 913.766 729.046C917.079 723.986 914.627 718.113 917.067 713.232C918.63 710.106 917.405 706.896 918.276 703.699C919.596 698.851 922.659 696.991 927.04 696.763C928.37 696.694 929.525 696.793 930.728 696.079C937.627 691.987 939.186 692.133 944.208 697.829C945.537 699.337 946.136 701.021 947.66 698.015C948.386 696.585 949.901 698.187 949.719 698.525C948.106 701.512 951.19 702.285 952.313 703.43C954.798 705.962 956.092 708.357 955.064 711.972C954.281 714.729 956.023 717.453 955.968 720.18C955.843 726.27 952.951 731.805 951.973 737.767C951.515 740.554 949.729 743.089 950.874 746.16C951.143 746.882 951.756 748.607 949.562 748.471C948.688 748.417 947.782 749.508 948.114 750.094C951.089 755.333 946.087 759.609 946.378 764.837C946.619 769.172 943.212 773.932 942.547 778.865C942.09 782.251 941.196 785.601 941.027 788.994C940.91 791.322 937.934 790.181 937.749 792.906C937.402 798.006 936.074 803.071 933.999 807.876C932.421 811.529 931.728 815.394 932.133 819.427C932.325 821.343 928.749 820.601 929.267 823.699C929.477 824.956 927.893 827.658 928.049 829.802C928.417 834.854 926.23 839.034 922.993 842.306C919.202 846.138 921.395 850.138 922.341 853.532C924.017 859.544 928.627 864.317 931.264 869.924C932.394 872.328 935.843 875.024 933.207 878.564C936.917 883.258 933.52 890.317 938.726 894.652C940.945 896.499 938.45 899.78 940.189 902.31C941.56 904.303 941.987 906.958 942.772 909.34C944.072 913.285 948.465 914.024 950.78 917.092C952.043 918.767 953.556 919.924 953.331 922.215C953.08 924.771 955.677 925.992 956.162 928.208C957.686 927.582 960.026 929.179 960.425 925.604C960.907 921.281 962.015 916.953 966.605 914.353C968.158 913.473 969.831 911.816 971.19 910.115C972.442 908.548 974.15 905.695 977.266 907.642C977.517 907.799 977.947 907.909 978.192 907.804C986.573 904.204 993.694 906.342 997.028 914.13C999.491 919.88 1000.14 926.05 999.587 932.429C999.373 934.889 1001.05 937.336 1001.26 940.206C1001.79 947.571 1002.6 954.951 1004.06 962.3C1005 967.042 1006.49 973.105 1002.95 978.062C1002.42 978.802 1002.78 979.242 1002.93 979.791C1005.13 987.65 1002.57 995.066 1001.46 1002.75C1000.61 1008.58 998.692 1014.08 997.892 1019.86C997.723 1021.09 997.29 1022.32 996.411 1023.57C994.26 1026.63 996.362 1039.47 999.83 1041.56C1002.29 1043.05 1000.56 1046.16 1003.29 1046.89C1008.25 1048.21 1005.63 1054.67 1010.17 1056.86C1009.31 1051.31 1012.65 1046.4 1011.52 1040.97C1011.44 1040.55 1011.92 1039.83 1011.73 1039.63C1007.61 1035.23 1011.34 1031.29 1012.22 1027.08C1013 1023.39 1013.88 1019.69 1011.34 1015.8C1010.28 1014.18 1011.84 1010.78 1012.42 1008.24C1012.52 1007.8 1014.07 1007.85 1013.08 1006.66C1010.59 1003.69 1010.66 1002.61 1013.43 999.013C1016.61 994.888 1015.98 987.9 1011.66 986.006C1017.02 984.349 1016.73 980.671 1016.05 976.505C1015.35 972.151 1015.53 967.649 1014.81 963.299C1013.96 958.207 1017.69 954.063 1017.27 949.195C1016.94 945.229 1020.45 941.893 1018.81 937.669C1018.2 936.089 1018.76 934.508 1016.4 933.472C1013.41 932.163 1014.31 928.875 1016.21 927.564C1021.13 924.17 1020.58 918.786 1020.99 914.312C1021.63 907.428 1023.66 900.772 1024.26 894.163C1024.82 888.099 1030.33 880.816 1023.16 874.98C1022.59 874.522 1022.8 874.294 1023.23 874.002C1025.08 872.755 1028.36 871.913 1024.6 869.096C1028.84 865.072 1022.52 863.054 1022.76 859.7C1022.84 858.598 1021.46 857.852 1020.11 858.053C1019.21 858.186 1018.43 858.816 1017.7 857.444C1015.43 853.17 1011.02 851.351 1007.39 848.604C1006.11 847.64 1005.71 845.393 1005.14 843.657C1004.06 840.382 1003.06 837.38 998.453 838.339C996.397 838.767 995.619 836.687 995.667 835.147C995.875 828.534 988.459 828.136 986.39 823.451C984.951 824.106 985.034 823.875 984.715 822.189C983.924 817.998 980.999 814.938 977.184 813.023C975.815 812.336 975.254 811.539 974.891 810.132C974.541 808.771 973.935 807.51 972.44 806.682C969.982 805.319 968.176 803.59 967.847 800.233C967.661 798.337 967.448 795.408 963.918 794.745C960.921 794.182 963.742 790.995 962.598 789.233C959.585 784.592 961.263 779.006 959.634 774.076C963.322 772.627 960.346 767.39 965.268 765.463C968.422 764.228 973.344 763.255 975.048 759.969C976.818 756.555 979.266 754.097 982.213 755.228C988.206 757.527 994.757 757.783 1000.46 761.561C1004.4 764.165 1008.29 767.581 1013.47 768.378C1014.46 768.53 1018.85 768.615 1016.54 772.556C1016.41 772.771 1019.2 775.113 1020.9 775.886C1023.87 777.241 1026.2 779.742 1029.6 780.342C1032.25 780.807 1032.83 783.483 1033.74 785.488C1034.77 787.786 1036.59 788.909 1038.72 788.806C1040.63 788.713 1041.22 786.451 1041.95 784.928C1042.93 782.884 1041.6 781.729 1039.79 780.974C1039.45 780.832 1038.93 780.279 1038.97 780.206C1042.02 775.116 1039.22 769.149 1041.53 763.892C1043.75 758.834 1042.83 753.024 1044.88 747.859C1045.08 747.365 1044.84 746.376 1044.45 746.021C1040.49 742.474 1043.87 738.934 1044.13 735.299C1044.49 730.408 1045.14 725.232 1045.99 720.754C1047.21 714.274 1045.77 707.524 1048.2 701.46C1049.92 697.205 1048.8 693.145 1048.99 688.996C1049.05 687.695 1046.04 688.134 1047.65 685.719C1048.26 684.809 1047.77 684.014 1049.59 683.346C1052.04 682.443 1053.02 678.851 1050.41 677.521C1045.91 675.221 1049.14 672.464 1049.99 671.01C1050.79 669.658 1051.47 668.287 1051.3 667.055C1050.78 663.198 1052.25 659.961 1053.72 656.623C1056.63 650.014 1050.82 640.05 1043.55 639.584C1041.66 639.462 1041.82 639.562 1041.22 637.655C1040.15 634.204 1034.83 632.725 1033.02 633.531C1029.12 635.265 1028.84 630.187 1026.12 631.167C1025.26 627.306 1021.51 626.354 1019.1 624.04C1016.85 621.883 1014.52 619.756 1013.09 616.755C1011.99 614.465 1010.42 612.447 1006.88 613.346C1004.05 614.066 1001.79 611.881 1001.6 609.155C1001.36 605.743 1000.48 603.677 997.54 601.334C995.737 599.9 993.233 596.67 993.087 593.404C992.951 590.376 990.376 588.338 990.279 585.208C990.253 584.402 988.744 580.313 985.225 582.736C983.669 583.807 982.986 582.232 982.897 580.719C982.483 573.657 975.206 569.601 974.903 562.427C974.836 560.849 973.408 559.858 971.696 559.76C971.06 559.723 970.278 560.018 970.139 559.064C968.727 549.353 959.327 544.185 956.601 535.226C950.619 533.645 953.977 526.642 950.017 523.887C953.312 520.079 946.569 514.48 952.298 511.107C952.075 503.556 959.117 502.114 963.488 499.39C967.29 497.02 972.831 497.667 977.798 499.17C982.125 500.48 984.451 505.181 988.852 505.517C994.742 505.966 995.55 512.648 1000.49 514.1C1001.74 514.468 1003.04 515.77 1003.8 514.142C1004.41 512.821 1005.96 512.211 1005.6 509.924C1004.16 500.654 1002.58 491.183 1009.11 482.882C1009.99 481.762 1008.47 480.604 1009.4 479.327C1011.8 476.035 1023.59 471.45 1027.05 473.228C1032.19 475.876 1037.1 479.028 1040.53 483.965C1042.07 486.177 1044.27 488.014 1045.63 490.152C1046.72 491.842 1050.37 493.229 1048.14 496.559C1047.82 497.032 1048.48 498.601 1049.11 499.2C1054.62 504.352 1057.81 510.937 1060.93 517.613C1062.01 519.912 1065.96 519.151 1066.51 522.636C1066.63 523.361 1069.31 521.898 1068.72 520.696C1065.97 515.041 1069.01 510.038 1070.04 504.808C1070.11 504.496 1070.52 504.065 1070.43 503.936C1065.09 496.536 1073.76 489.014 1070.24 481.597C1070.02 481.12 1070.76 480.713 1070.95 480.404C1072.87 477.291 1074.25 474.439 1073.52 470.081C1072.93 466.56 1073.74 462.123 1074.28 458.355C1075.15 452.173 1076.11 446.21 1074.47 440.163C1074.08 438.736 1074.4 437.541 1075.06 437.07C1079.43 433.983 1074.98 429.194 1077.48 425.607C1078.75 423.802 1074.61 425.247 1074.64 422.356C1074.7 418.101 1077.57 415.068 1078.14 411.077C1078.44 409.024 1079.9 407.419 1077.55 405.83C1077.28 405.649 1076.81 405.255 1076.84 405.214C1079.19 401.481 1076.78 397.111 1078.28 393.514C1078.96 391.889 1079.2 390.607 1078.99 389.071C1078.64 386.391 1078.05 383.758 1080.17 381.401C1081.6 379.814 1080.51 378.935 1079.34 377.413C1076.56 373.785 1074.13 369.762 1072.26 365.587C1069.5 359.466 1067.23 353.118 1063.64 347.411C1062.54 345.665 1060.55 345.181 1058.48 344.958C1055.56 344.644 1053.42 343.532 1052.78 340.06C1052.46 338.366 1052.14 334.948 1048.29 336.724C1047.24 337.211 1045.59 333.446 1046.47 332.443C1047.15 331.664 1046.6 331.494 1046.02 331.049C1040.47 326.788 1038.87 319.923 1035.18 314.423C1033 311.174 1030.43 308.02 1030.49 303.752C1024.47 302.077 1024.62 296.053 1023.3 291.887C1021.81 287.192 1020.16 283.512 1016.11 280.672C1015.69 280.38 1015.67 276.969 1015.22 274.93C1013.71 267.989 1009.37 262.317 1007.28 255.692C1006.9 254.493 1006.38 253.196 1006.51 252.009C1006.89 248.548 1007.6 245.163 1002.54 244.576C1002.13 244.528 1001.43 242.713 1001.67 241.985C1003.51 236.44 1000.95 230.231 1002.69 225.481C1004.11 221.6 1003.38 216.533 1007.03 213.55C1010.05 211.084 1013.12 208.588 1017.3 208.198C1019.54 207.99 1021.42 207.387 1023.37 205.656C1027.81 201.721 1031.38 206.668 1035.24 207.921C1037.94 208.799 1038.64 213.598 1043.18 212.06C1043.71 211.881 1047.62 215.533 1048.13 218.977C1048.92 224.297 1054.54 227.103 1055.69 232.24C1056.82 237.297 1060.45 241.12 1062.11 246.055C1062.91 248.449 1064.86 253.366 1069.32 254.635C1070.38 254.938 1071.85 257.803 1071.43 258.607C1069.98 261.389 1072.19 262.824 1073.21 264.352C1077.31 270.506 1080.46 277.068 1083.2 283.919C1084.11 286.207 1086.13 286.398 1088.25 284.342C1091.83 280.88 1092.38 276.099 1093.73 271.823C1094.57 269.136 1096.64 266.267 1095.12 262.969C1094.57 261.777 1096.1 261.952 1096.57 261.516C1098.62 259.584 1100.55 257.486 1100.13 254.087C1099.58 249.683 1103.31 246.757 1104.61 242.954C1104.7 242.681 1105.21 242.552 1105.31 242.278C1107.82 235.262 1113.92 229.72 1113.95 221.719C1113.96 218.647 1113.18 216.059 1110.66 213.48C1107.95 210.714 1108.16 205.98 1106.24 202.311C1105.3 200.509 1105.35 198.433 1103.05 197.372C1102.04 196.908 1101.16 195.947 1101.15 194.23C1101.12 191.969 1100.81 189.605 1098.18 188.139C1096.95 187.45 1097.08 185.13 1096.65 183.548C1094.27 174.686 1093.65 165.847 1093.63 156.657C1093.62 150.706 1095.53 144.715 1093.85 138.765C1097.69 137.976 1093.19 132.252 1097.94 131.805C1098.43 131.759 1099.54 130.052 1098.44 128.816C1099.78 128.1 1096.51 123.265 1101.51 125.501C1102.38 125.889 1103.21 123.483 1103.42 121.716C1103.78 118.731 1105.25 116.356 1108.33 114.737C1112.37 112.614 1116.34 110.861 1120.95 111.185C1125.93 111.535 1130.89 112.027 1135.86 112.458C1135.08 116.363 1142.37 116.044 1140.2 120.727C1140.09 120.961 1140.64 121.834 1140.83 121.819C1146.16 121.392 1144.29 126.275 1145.88 128.586C1149.21 133.424 1150.17 139.037 1151.86 144.811C1152.6 145.068 1152.76 145.124 1153.44 145.123C1155.02 144.958 1155.31 144.797 1155.31 143.356C1155.32 141.316 1157 139.3 1157.61 137.496C1159.67 131.4 1166.83 129.357 1168.17 123.025C1168.23 122.746 1168.57 122.263 1168.61 122.281C1172.84 123.981 1175.75 119.449 1180.24 120.156C1184.31 120.796 1187.68 120.785 1191.55 123.521C1199.09 128.854 1199.09 135.57 1198.09 143.206C1197.8 145.494 1197.93 147.854 1198.03 150.174C1198.1 152.049 1197.94 153.886 1196.82 155.365C1193.66 159.53 1192.78 164.447 1192.08 169.393C1191.83 171.195 1191.27 172.202 1189.66 173.253C1187.02 174.975 1186.79 177.295 1189.77 179.597C1189.19 181.413 1187.47 180.637 1186.52 181.494C1187.36 180.76 1188.65 181.216 1189.57 180.065Z" fill="black"/>
</svg>
